#!OML:ASF E:\Style4\Style4.ASF
:FULLY-SPECIFIED
:DEGREES
1999
root 0.537956 18.1496 0.0394165 4.50852 -8.41922 4.8526
lowerback 2.36643 2.35698 2.93968
upperback -3.52818 3.29381 0.0617747
thorax -4.81228 1.52903 -1.78994
lowerneck 3.56225 -1.89356 -5.81458
upperneck 3.85187 -2.78704 3.82736
head 0.743117 -1.45474 2.21317
rclavicle 1.40889e-014 1.98785e-014
rhumerus -87.1382 50.0541 -119.773
rradius 88.0659
rwrist -5.93301
rhand 0.993185 28.4395
rfingers 7.12502
rthumb 26.5413 0.278914
lclavicle 1.40889e-014 1.98785e-014
lhumerus -22.3669 13.0138 18.9981
lradius 96.9714
lwrist -12.9559
lhand -10.826 28.7194
lfingers 7.12502
lthumb 15.1881 58.142
rfemur -7.7771 12.0528 10.8368
rtibia 19.2432
rfoot -15.3108 -15.1009
rtoes -14.4856
lfemur 5.14188 0.358868 -26.7906
ltibia 6.36111e-015
lfoot -11.062 14.7076
ltoes -13.09
2000
root 0.523967 18.1524 0.0355345 4.49077 -8.04007 4.78553
lowerback 2.30551 2.26845 2.84232
upperback -3.46553 3.16775 0.0676369
thorax -4.72351 1.47242 -1.71764
lowerneck 3.53753 -1.9385 -5.89089
upperneck 3.83896 -2.84789 3.84113
head 0.748055 -1.48577 2.23147
rclavicle -8.3738e-015 1.27222e-014
rhumerus -87.1938 50.1422 -119.771
rradius 87.9794
rwrist -6.10085
rhand 0.566445 28.4754
rfingers 7.12502
rthumb 26.1328 0.253766
lclavicle -8.3738e-015 1.27222e-014
lhumerus -21.6205 11.8187 18.6948
lradius 95.7516
lwrist -13.1146
lhand -10.4191 27.6241
lfingers 7.12502
lthumb 15.58 57.0166
rfemur -7.5853 11.8635 11.0283
rtibia 19.1384
rfoot -15.2821 -15.2853
rtoes -14.3862
lfemur 5.16543 -0.00894812 -26.6418
ltibia 1.43125e-014
lfoot -11.0846 14.7485
ltoes -13.2076
2001
root 0.509531 18.1554 0.0351148 4.43909 -7.69881 4.74766
lowerback 2.28127 2.19551 2.70506
upperback -3.43087 3.06178 0.0511617
thorax -4.68431 1.42548 -1.65002
lowerneck 3.64295 -1.99366 -5.89867
upperneck 3.74818 -2.92546 3.81662
head 0.705113 -1.52496 2.22639
rclavicle 2.81032e-014 -2.46493e-014
rhumerus -87.3043 50.142 -119.821
rradius 87.8976
rwrist -6.16947
rhand 0.0725883 28.5123
rfingers 7.12502
rthumb 25.6599 0.221525
lclavicle 2.81032e-014 -2.46493e-014
lhumerus -20.8754 10.3386 18.3589
lradius 94.5342
lwrist -13.0765
lhand -10.1401 26.7213
lfingers 7.12502
lthumb 15.8487 56.0926
rfemur -7.33786 11.734 11.1935
rtibia 19.0154
rfoot -15.3086 -15.4589
rtoes -14.1942
lfemur 5.23007 -0.338186 -26.5345
ltibia -1.27222e-014
lfoot -11.011 14.81
ltoes -13.8229
2002
root 0.493014 18.1577 0.0308832 4.46417 -7.63583 4.63253
lowerback 2.2641 2.19464 2.57138
upperback -3.43495 3.05423 0.0549945
thorax -4.68583 1.42657 -1.57051
lowerneck 3.80029 -2.01351 -5.82953
upperneck 3.58486 -2.9542 3.74304
head 0.625626 -1.53876 2.19212
rclavicle -6.58474e-015 0
rhumerus -87.4348 50.2125 -119.972
rradius 87.7802
rwrist -6.15414
rhand -0.107178 28.5426
rfingers 7.12502
rthumb 25.4877 0.227089
lclavicle -6.58474e-015 0
lhumerus -20.2054 8.78197 17.9531
lradius 93.2734
lwrist -12.9023
lhand -9.91462 25.6203
lfingers 7.12502
lthumb 16.0659 54.9743
rfemur -7.25002 11.6772 11.3854
rtibia 18.8639
rfoot -15.2103 -15.4654
rtoes -14.0989
lfemur 5.21601 -0.393872 -26.3508
ltibia -3.18055e-015
lfoot -10.861 14.761
ltoes -13.5017
2003
root 0.475567 18.1609 0.0223865 4.51638 -7.60164 4.46332
lowerback 2.27143 2.2276 2.4734
upperback -3.43919 3.09524 0.0806208
thorax -4.69891 1.45072 -1.49236
lowerneck 3.88673 -2.0312 -5.86384
upperneck 3.46902 -2.982 3.75202
head 0.57655 -1.55287 2.20309
rclavicle 2.5196e-014 2.14687e-014
rhumerus -87.5225 50.2239 -119.991
rradius 87.6828
rwrist -6.00847
rhand -0.254436 28.7313
rfingers 7.12502
rthumb 25.3466 0.395778
lclavicle 2.5196e-014 2.14687e-014
lhumerus -19.4735 7.14009 17.6204
lradius 91.9028
lwrist -12.6021
lhand -9.69456 24.4538
lfingers 7.12502
lthumb 16.2778 53.7906
rfemur -7.23445 11.6607 11.6316
rtibia 18.7361
rfoot -15.1756 -15.4184
rtoes -13.9677
lfemur 5.16017 -0.419202 -26.0956
ltibia -2.70347e-014
lfoot -10.8048 14.7244
ltoes -13.1304
2004
root 0.458627 18.1627 0.0169353 4.53262 -7.57364 4.36865
lowerback 2.26143 2.27361 2.32856
upperback -3.43989 3.1496 0.0735529
thorax -4.69862 1.48285 -1.42174
lowerneck 3.98298 -2.07578 -5.97502
upperneck 3.3922 -3.05042 3.80264
head 0.54234 -1.58851 2.24199
rclavicle 2.11209e-014 -3.97569e-015
rhumerus -87.6574 50.1909 -120.026
rradius 87.582
rwrist -5.99153
rhand -0.449708 29.0828
rfingers 7.12502
rthumb 25.1596 0.720823
lclavicle 2.11209e-014 -3.97569e-015
lhumerus -18.7354 5.18457 17.2496
lradius 90.5786
lwrist -12.2666
lhand -9.70555 23.699
lfingers 7.12502
lthumb 16.2672 53.0366
rfemur -7.192 11.5643 11.7977
rtibia 18.6165
rfoot -15.0781 -15.3746
rtoes -14.1935
lfemur 5.15275 -0.441037 -25.9278
ltibia 4.77083e-015
lfoot -10.8637 14.7387
ltoes -12.9775
